<mxfile host="app.diagrams.net" modified="2021-01-10T19:55:47.217Z" agent="5.0 (Windows NT 10.0; Win64; x64) AppleWebKit/537.36 (KHTML, like Gecko) Chrome/87.0.4280.141 Safari/537.36" etag="SaznHNvVUSWUyRKYo6E5" version="14.1.8" type="github">
  <diagram id="3A8dqcClKvY8Iy2FM3Yi" name="Page-1">
    <mxGraphModel dx="1426" dy="420" grid="1" gridSize="10" guides="1" tooltips="1" connect="1" arrows="1" fold="1" page="1" pageScale="1" pageWidth="1600" pageHeight="900" math="0" shadow="0">
      <root>
        <mxCell id="0" />
        <mxCell id="1" parent="0" />
        <mxCell id="6gMDWVlPtUm7GsezcCrF-2" value="前端、设计、产品协作" style="rounded=1;whiteSpace=wrap;html=1;" vertex="1" parent="1">
          <mxGeometry x="40" y="240" width="120" height="60" as="geometry" />
        </mxCell>
        <mxCell id="6gMDWVlPtUm7GsezcCrF-8" style="edgeStyle=orthogonalEdgeStyle;rounded=0;orthogonalLoop=1;jettySize=auto;html=1;" edge="1" parent="1" source="6gMDWVlPtUm7GsezcCrF-6">
          <mxGeometry relative="1" as="geometry">
            <mxPoint x="400" y="270" as="targetPoint" />
          </mxGeometry>
        </mxCell>
        <mxCell id="6gMDWVlPtUm7GsezcCrF-6" value="模块拆分、项目分工及排期" style="rounded=1;whiteSpace=wrap;html=1;" vertex="1" parent="1">
          <mxGeometry x="220" y="240" width="120" height="60" as="geometry" />
        </mxCell>
        <mxCell id="6gMDWVlPtUm7GsezcCrF-7" value="" style="endArrow=classic;html=1;entryX=0;entryY=0.5;entryDx=0;entryDy=0;" edge="1" parent="1" target="6gMDWVlPtUm7GsezcCrF-6">
          <mxGeometry width="50" height="50" relative="1" as="geometry">
            <mxPoint x="160" y="270" as="sourcePoint" />
            <mxPoint x="210" y="220" as="targetPoint" />
            <Array as="points">
              <mxPoint x="160" y="270" />
            </Array>
          </mxGeometry>
        </mxCell>
        <mxCell id="6gMDWVlPtUm7GsezcCrF-12" style="edgeStyle=orthogonalEdgeStyle;rounded=0;orthogonalLoop=1;jettySize=auto;html=1;" edge="1" parent="1" source="6gMDWVlPtUm7GsezcCrF-10" target="6gMDWVlPtUm7GsezcCrF-11">
          <mxGeometry relative="1" as="geometry" />
        </mxCell>
        <mxCell id="6gMDWVlPtUm7GsezcCrF-10" value="前后端协作" style="rounded=1;whiteSpace=wrap;html=1;" vertex="1" parent="1">
          <mxGeometry x="400" y="240" width="120" height="60" as="geometry" />
        </mxCell>
        <mxCell id="6gMDWVlPtUm7GsezcCrF-13" style="edgeStyle=orthogonalEdgeStyle;rounded=0;orthogonalLoop=1;jettySize=auto;html=1;" edge="1" parent="1" source="6gMDWVlPtUm7GsezcCrF-11" target="6gMDWVlPtUm7GsezcCrF-14">
          <mxGeometry relative="1" as="geometry">
            <mxPoint x="770" y="270" as="targetPoint" />
          </mxGeometry>
        </mxCell>
        <mxCell id="6gMDWVlPtUm7GsezcCrF-11" value="编码" style="rounded=1;whiteSpace=wrap;html=1;" vertex="1" parent="1">
          <mxGeometry x="580" y="240" width="120" height="60" as="geometry" />
        </mxCell>
        <mxCell id="6gMDWVlPtUm7GsezcCrF-14" value="总结" style="rounded=1;whiteSpace=wrap;html=1;" vertex="1" parent="1">
          <mxGeometry x="760" y="240" width="120" height="60" as="geometry" />
        </mxCell>
      </root>
    </mxGraphModel>
  </diagram>
</mxfile>
